<svg width="1200" height="630" viewBox="0 0 1200 630" fill="none" xmlns="http://www.w3.org/2000/svg">
  <defs>
    <linearGradient id="bg" x1="80" y1="40" x2="1120" y2="590" gradientUnits="userSpaceOnUse">
      <stop stop-color="#07121E"/>
      <stop offset="0.58" stop-color="#0B5AA8"/>
      <stop offset="1" stop-color="#10A9E8"/>
    </linearGradient>
    <linearGradient id="logo" x1="650" y1="190" x2="820" y2="370" gradientUnits="userSpaceOnUse">
      <stop stop-color="#B8F1FF"/>
      <stop offset="1" stop-color="#1DC8F6"/>
    </linearGradient>
    <linearGradient id="accent" x1="130" y1="490" x2="360" y2="580" gradientUnits="userSpaceOnUse">
      <stop stop-color="#8FE4FF" stop-opacity="0.9"/>
      <stop offset="1" stop-color="#FFFFFF" stop-opacity="0.2"/>
    </linearGradient>
  </defs>

  <rect width="1200" height="630" rx="28" fill="url(#bg)"/>
  <circle cx="1000" cy="96" r="180" fill="#FFFFFF" fill-opacity="0.08"/>
  <circle cx="955" cy="100" r="126" fill="#FFFFFF" fill-opacity="0.07"/>
  <circle cx="1090" cy="516" r="240" fill="#FFFFFF" fill-opacity="0.05"/>
  <path d="M96 506C189 472 277 468 375 490" stroke="url(#accent)" stroke-width="6" stroke-linecap="round"/>

  <rect x="94" y="96" width="144" height="144" rx="36" fill="#081320"/>
  <rect x="98" y="100" width="136" height="136" rx="32" stroke="white" stroke-opacity="0.18" stroke-width="2"/>
  <circle cx="166" cy="168" r="58" fill="white" fill-opacity="0.06"/>
  <path d="M124 204V132L146 170L168 132V204" stroke="white" stroke-width="14" stroke-linecap="round" stroke-linejoin="round"/>
  <path d="M186 204V132H207C221.359 132 233 143.641 233 158C233 172.359 221.359 184 207 184H186" stroke="url(#logo)" stroke-width="14" stroke-linecap="round" stroke-linejoin="round"/>
  <path d="M205 184L232 204" stroke="url(#logo)" stroke-width="14" stroke-linecap="round" stroke-linejoin="round"/>

  <text x="94" y="330" fill="white" font-family="Georgia, 'Times New Roman', serif" font-size="74" font-weight="700">
    MyelomaRisk
  </text>
  <text x="94" y="392" fill="#D7ECFF" font-family="Arial, Helvetica, sans-serif" font-size="30">
    Risk stratification and prognosis calculators for plasma cell disorders
  </text>
  <text x="94" y="450" fill="#B7D9F5" font-family="Arial, Helvetica, sans-serif" font-size="24">
    Multiple Myeloma  •  Smoldering Myeloma  •  MGUS  •  Amyloidosis
  </text>
  <text x="94" y="532" fill="#EAF6FF" font-family="Arial, Helvetica, sans-serif" font-size="26" font-weight="600">
    Developed with Mayo Clinic hematologists
  </text>
</svg>
